<svg xmlns="http://www.w3.org/2000/svg" viewBox="0 0 640 1272" font-family="Georgia, serif" font-size="14">
<rect width="640" height="1272" fill="#fffff8"/>
<text x="320" y="82" text-anchor="middle" font-size="28" font-weight="bold" fill="#111">Choose a path</text>
<path d="M185,150 C185,180 320,180 320,209" fill="none" stroke="#a9a99f" stroke-width="13.0"/>
<path d="M466,150 C466,180 320,180 320,209" fill="none" stroke="#a9a99f" stroke-width="13.0"/>
<path d="M320,265 C320,294 186,294 186,324" fill="none" stroke="#a9a99f" stroke-width="2.6"/>
<path d="M320,265 C320,294 421,294 421,324" fill="none" stroke="#a9a99f" stroke-width="23.4"/>
<path d="M421,380 C421,410 205,410 205,439" fill="none" stroke="#a9a99f" stroke-width="13.0"/>
<path d="M421,380 C421,410 417,410 417,439" fill="none" stroke="#a9a99f" stroke-width="10.4"/>
<path d="M417,495 C417,524 320,524 320,554" fill="none" stroke="#a9a99f" stroke-width="1.3"/>
<path d="M417,495 C417,582 450,582 450,669" fill="none" stroke="#a9a99f" stroke-width="7.8"/>
<path d="M417,495 C417,582 191,582 191,669" fill="none" stroke="#a9a99f" stroke-width="1.3"/>
<path d="M191,725 C191,754 443,754 443,784" fill="none" stroke="#a9a99f" stroke-width="1.0"/>
<path d="M191,725 C191,754 208,754 208,784" fill="none" stroke="#a9a99f" stroke-width="1.0" stroke-dasharray="5 5"/>
<path d="M443,840 C443,870 450,870 450,899" fill="none" stroke="#a9a99f" stroke-width="1.0"/>
<path d="M532,812 C587,812 587,1042 514,1042" fill="none" stroke="#a9a99f" stroke-width="1.0"/>
<path d="M208,840 C208,870 205,870 205,899" fill="none" stroke="#a9a99f" stroke-width="1.0"/>
<path d="M108,812 C63,812 63,1042 126,1042" fill="none" stroke="#a9a99f" stroke-width="1.0"/>
<path d="M417,1070 C417,1100 219,1100 219,1129" fill="none" stroke="#a9a99f" stroke-width="1.0"/>
<path d="M417,1070 C417,1100 450,1100 450,1129" fill="none" stroke="#a9a99f" stroke-width="1.0"/>
<rect x="228" y="280" width="50" height="17" fill="#fffff8"/>
<text x="253" y="292" text-anchor="middle" fill="#555" font-size="12.5" font-style="italic">stalls</text>
<rect x="329" y="280" width="83" height="17" fill="#fffff8"/>
<text x="370" y="292" text-anchor="middle" fill="#555" font-size="12.5" font-style="italic">race / deal</text>
<rect x="268" y="396" width="89" height="17" fill="#fffff8"/>
<text x="313" y="408" text-anchor="middle" fill="#555" font-size="12.5" font-style="italic">control lost</text>
<rect x="374" y="396" width="89" height="17" fill="#fffff8"/>
<text x="419" y="408" text-anchor="middle" fill="#555" font-size="12.5" font-style="italic">control kept</text>
<rect x="321" y="510" width="96" height="17" fill="#fffff8"/>
<text x="368" y="522" text-anchor="middle" fill="#555" font-size="12.5" font-style="italic">seized abroad</text>
<rect x="353" y="533" width="149" height="17" fill="#fffff8"/>
<text x="427" y="545" text-anchor="middle" fill="#555" font-size="12.5" font-style="italic">power grabbed at home</text>
<rect x="285" y="533" width="129" height="17" fill="#fffff8"/>
<text x="349" y="545" text-anchor="middle" fill="#555" font-size="12.5" font-style="italic">power stays spread</text>
<rect x="269" y="740" width="96" height="17" fill="#fffff8"/>
<text x="317" y="752" text-anchor="middle" fill="#555" font-size="12.5" font-style="italic">set our price</text>
<rect x="418" y="856" width="56" height="17" fill="#fffff8"/>
<text x="446" y="868" text-anchor="middle" fill="#555" font-size="12.5" font-style="italic">host it</text>
<rect x="539" y="915" width="96" height="17" fill="#fffff8"/>
<text x="587" y="927" text-anchor="middle" fill="#555" font-size="12.5" font-style="italic">stay supplier</text>
<rect x="178" y="856" width="56" height="17" fill="#fffff8"/>
<text x="207" y="868" text-anchor="middle" fill="#555" font-size="12.5" font-style="italic">concert</text>
<rect x="35" y="915" width="56" height="17" fill="#fffff8"/>
<text x="63" y="927" text-anchor="middle" fill="#555" font-size="12.5" font-style="italic">US bloc</text>
<rect x="274" y="1086" width="89" height="17" fill="#fffff8"/>
<text x="318" y="1098" text-anchor="middle" fill="#555" font-size="12.5" font-style="italic">public stake</text>
<rect x="402" y="1086" width="63" height="17" fill="#fffff8"/>
<text x="433" y="1098" text-anchor="middle" fill="#555" font-size="12.5" font-style="italic">no stake</text>
<a href="#1-prepare-before-it-looks-urgent-2026-28"><title>1. Prepare early — 2026-28: royalties, biosecurity, allies</title>
<rect x="61" y="94" width="248" height="56" rx="4" fill="#fffff8" stroke="#38761d" stroke-width="2.2"/>
<text x="185" y="119" text-anchor="middle" font-weight="bold" font-size="13">1. Prepare early</text>
<text x="185" y="135" text-anchor="middle" fill="#333" font-size="11">2026-28: royalties, biosecurity, allies</text>
</a>
<a href="#2-train-the-people-the-treaty-needs-2026-29"><title>2. Build the people — 2026-29: safety testers, inspectors</title>
<rect x="353" y="94" width="226" height="56" rx="4" fill="#fffff8" stroke="#38761d" stroke-width="2.2"/>
<text x="466" y="119" text-anchor="middle" font-weight="bold" font-size="13">2. Build the people</text>
<text x="466" y="135" text-anchor="middle" fill="#333" font-size="11">2026-29: safety testers, inspectors</text>
</a>
<a href="#what-anz-can-do"><title>2029: the US chooses — go-slow deal with China, or race?</title>
<rect x="213" y="209" width="214" height="56" rx="4" fill="#fffff8" stroke="#888888" stroke-width="2.2"/>
<text x="320" y="234" text-anchor="middle" font-weight="bold" font-size="13">2029: the US chooses</text>
<text x="320" y="250" text-anchor="middle" fill="#333" font-size="11">go-slow deal with China, or race?</text>
</a>
<a href="#vii-boring-decade-about-10"><title>VII. Boring decade — ~10%</title>
<rect x="108" y="324" width="157" height="56" rx="22" fill="#fffff8" stroke="#3d85c6" stroke-width="2.2"/>
<text x="186" y="349" text-anchor="middle" font-weight="bold" font-size="13">VII. Boring decade</text>
<text x="186" y="365" text-anchor="middle" fill="#333" font-size="11">~10%</text>
</a>
<a href="#where-this-could-leave-us"><title>Does humanity keep control? — ~90%: AI progress continues</title>
<rect x="309" y="324" width="223" height="56" rx="4" fill="#fffff8" stroke="#888888" stroke-width="2.2"/>
<text x="421" y="349" text-anchor="middle" font-weight="bold" font-size="13">Does humanity keep control?</text>
<text x="421" y="365" text-anchor="middle" fill="#333" font-size="11">~90%: AI progress continues</text>
</a>
<a href="#i-doom-about-50"><title>I. Doom — ~50%</title>
<rect x="130" y="439" width="150" height="56" rx="22" fill="#fffff8" stroke="#3d85c6" stroke-width="2.2"/>
<text x="205" y="464" text-anchor="middle" font-weight="bold" font-size="13">I. Doom</text>
<text x="205" y="480" text-anchor="middle" fill="#333" font-size="11">~50%</text>
</a>
<a href="#where-this-could-leave-us"><title>Who holds the AI? — ~40%: human control retained</title>
<rect x="324" y="439" width="186" height="56" rx="4" fill="#fffff8" stroke="#888888" stroke-width="2.2"/>
<text x="417" y="464" text-anchor="middle" font-weight="bold" font-size="13">Who holds the AI?</text>
<text x="417" y="480" text-anchor="middle" fill="#333" font-size="11">~40%: human control retained</text>
</a>
<a href="#ii-someone-elses-empire-about-5"><title>II. Someone else&#x27;s empire — ~5% — seized abroad</title>
<rect x="216" y="554" width="208" height="56" rx="22" fill="#fffff8" stroke="#3d85c6" stroke-width="2.2"/>
<text x="320" y="579" text-anchor="middle" font-weight="bold" font-size="13">II. Someone else&#x27;s empire</text>
<text x="320" y="595" text-anchor="middle" fill="#333" font-size="11">~5% — seized abroad</text>
</a>
<a href="#3-ask-for-terms-before-signing-2029"><title>3. Sign, or set our price? — the deal reaches us, 2029</title>
<rect x="83" y="669" width="216" height="56" rx="4" fill="#fffff8" stroke="#b8860b" stroke-width="2.2"/>
<text x="191" y="694" text-anchor="middle" font-weight="bold" font-size="13">3. Sign, or set our price?</text>
<text x="191" y="710" text-anchor="middle" fill="#333" font-size="11">the deal reaches us, 2029</text>
</a>
<a href="#ix-homegrown-autocracy-free-beer-and-rugby-for-life-about-30"><title>IX. Homegrown autocracy — ~30% — citizens stop being needed</title>
<rect x="343" y="669" width="214" height="56" rx="22" fill="#fffff8" stroke="#3d85c6" stroke-width="2.2"/>
<text x="450" y="694" text-anchor="middle" font-weight="bold" font-size="13">IX. Homegrown autocracy</text>
<text x="450" y="710" text-anchor="middle" fill="#333" font-size="11">~30% — citizens stop being needed</text>
</a>
<a href="#6-choose-a-side-if-the-deal-collapses-2030s"><title>6. If the deal collapses — US bloc, concert, or neutral?</title>
<rect x="108" y="784" width="201" height="56" rx="4" fill="#fffff8" stroke="#b8860b" stroke-width="2.2"/>
<text x="208" y="809" text-anchor="middle" font-weight="bold" font-size="13">6. If the deal collapses</text>
<text x="208" y="825" text-anchor="middle" fill="#333" font-size="11">US bloc, concert, or neutral?</text>
</a>
<a href="#4-host-allied-compute-2030-32"><title>4. Host compute here? — 2030-32</title>
<rect x="353" y="784" width="179" height="56" rx="4" fill="#fffff8" stroke="#b8860b" stroke-width="2.2"/>
<text x="443" y="809" text-anchor="middle" font-weight="bold" font-size="13">4. Host compute here?</text>
<text x="443" y="825" text-anchor="middle" fill="#333" font-size="11">2030-32</text>
</a>
<a href="#viii-middle-power-concert"><title>VIII. Middle-power concert</title>
<rect x="97" y="899" width="216" height="56" rx="22" fill="#fffff8" stroke="#3d85c6" stroke-width="2.2"/>
<text x="205" y="931" text-anchor="middle" font-weight="bold" font-size="13">VIII. Middle-power concert</text>
</a>
<a href="#v-allied-compute-host"><title>V. Allied compute host</title>
<rect x="357" y="899" width="187" height="56" rx="22" fill="#fffff8" stroke="#3d85c6" stroke-width="2.2"/>
<text x="450" y="931" text-anchor="middle" font-weight="bold" font-size="13">V. Allied compute host</text>
</a>
<a href="#vi-garrison-ally"><title>VI. Garrison ally</title>
<rect x="126" y="1014" width="150" height="56" rx="22" fill="#fffff8" stroke="#3d85c6" stroke-width="2.2"/>
<text x="201" y="1046" text-anchor="middle" font-weight="bold" font-size="13">VI. Garrison ally</text>
</a>
<a href="#5-keep-a-public-stake-in-the-machine-economy-2031-34"><title>5. Tax it, own a share? — 2031-34</title>
<rect x="320" y="1014" width="194" height="56" rx="4" fill="#fffff8" stroke="#b8860b" stroke-width="2.2"/>
<text x="417" y="1039" text-anchor="middle" font-weight="bold" font-size="13">5. Tax it, own a share?</text>
<text x="417" y="1055" text-anchor="middle" fill="#333" font-size="11">2031-34</text>
</a>
<a href="#iii-dividend-commonwealth"><title>III. Dividend commonwealth</title>
<rect x="111" y="1129" width="216" height="56" rx="22" fill="#fffff8" stroke="#3d85c6" stroke-width="2.2"/>
<text x="219" y="1161" text-anchor="middle" font-weight="bold" font-size="13">III. Dividend commonwealth</text>
</a>
<a href="#iv-quarry-economy"><title>IV. Quarry economy — drift default</title>
<rect x="371" y="1129" width="157" height="56" rx="22" fill="#fffff8" stroke="#3d85c6" stroke-width="2.2"/>
<text x="450" y="1154" text-anchor="middle" font-weight="bold" font-size="13">IV. Quarry economy</text>
<text x="450" y="1170" text-anchor="middle" fill="#333" font-size="11">drift default</text>
</a>
</svg>