<svg xmlns="http://www.w3.org/2000/svg" viewBox="0 0 680 1157" font-family="Georgia, serif" font-size="14">
<rect width="680" height="1157" fill="#fffff8"/>
<text x="340" y="82" text-anchor="middle" font-size="28" font-weight="bold" fill="#111">Choose a path</text>
<path d="M217,150 C217,180 340,180 340,209" fill="none" stroke="#a9a99f" stroke-width="1.0"></path>
<path d="M523,150 C523,180 340,180 340,209" fill="none" stroke="#a9a99f" stroke-width="1.0"></path>
<path d="M340,265 C340,294 243,294 243,324" fill="none" stroke="#a9a99f" stroke-width="1.0" stroke-dasharray="5 5"></path>
<path d="M340,265 C340,294 441,294 441,324" fill="none" stroke="#a9a99f" stroke-width="26.0"><title>Conditional on rapid AI progress</title></path>
<path d="M441,380 C441,410 88,410 88,439" fill="none" stroke="#a9a99f" stroke-width="7.3"><title>28% misaligned takeover (AI 2040 supplement)</title></path>
<path d="M441,380 C441,410 311,410 311,439" fill="none" stroke="#a9a99f" stroke-width="7.8"><title>30% aligned without a &#x27;great future&#x27; (AI 2040 supplement)</title></path>
<path d="M441,380 C441,410 563,410 563,439" fill="none" stroke="#a9a99f" stroke-width="10.9"><title>42% &#x27;great future&#x27; (AI 2040 supplement)</title></path>
<path d="M563,495 C563,524 210,524 210,554" fill="none" stroke="#a9a99f" stroke-width="3.3"><title>30% conditional on AI 2040&#x27;s positive outcome; 12.6% of Plan A outcomes (our estimate)</title></path>
<path d="M563,495 C563,524 459,524 459,554" fill="none" stroke="#a9a99f" stroke-width="7.6"><title>70% conditional on AI 2040&#x27;s positive outcome; 29.4% of Plan A outcomes (our estimate)</title></path>
<path d="M459,610 C459,640 463,640 463,669" fill="none" stroke="#a9a99f" stroke-width="1.0"></path>
<path d="M459,610 C459,640 228,640 228,669" fill="none" stroke="#a9a99f" stroke-width="1.0" stroke-dasharray="5 5"></path>
<path d="M463,725 C463,754 470,754 470,784" fill="none" stroke="#a9a99f" stroke-width="1.0"></path>
<path d="M552,697 C607,697 607,927 534,927" fill="none" stroke="#a9a99f" stroke-width="1.0"></path>
<path d="M228,725 C228,754 225,754 225,784" fill="none" stroke="#a9a99f" stroke-width="1.0"></path>
<path d="M128,697 C83,697 83,927 146,927" fill="none" stroke="#a9a99f" stroke-width="1.0"></path>
<path d="M437,955 C437,984 239,984 239,1014" fill="none" stroke="#a9a99f" stroke-width="1.0"></path>
<path d="M437,955 C437,984 470,984 470,1014" fill="none" stroke="#a9a99f" stroke-width="1.0"></path>
<rect x="223" y="396" width="83" height="17" fill="#fffff8"/>
<text x="264" y="408" text-anchor="middle" fill="#555" font-size="12.5" font-style="italic">misaligned!</text>
<rect x="322" y="510" width="129" height="17" fill="#fffff8"/>
<text x="387" y="522" text-anchor="middle" fill="#555" font-size="12.5" font-style="italic">30% (our estimate)</text>
<rect x="413" y="626" width="96" height="17" fill="#fffff8"/>
<text x="461" y="638" text-anchor="middle" fill="#555" font-size="12.5" font-style="italic">set our price</text>
<rect x="438" y="740" width="56" height="17" fill="#fffff8"/>
<text x="466" y="752" text-anchor="middle" fill="#555" font-size="12.5" font-style="italic">host it</text>
<rect x="559" y="800" width="96" height="17" fill="#fffff8"/>
<text x="607" y="812" text-anchor="middle" fill="#555" font-size="12.5" font-style="italic">stay supplier</text>
<rect x="198" y="740" width="56" height="17" fill="#fffff8"/>
<text x="227" y="752" text-anchor="middle" fill="#555" font-size="12.5" font-style="italic">concert</text>
<rect x="55" y="800" width="56" height="17" fill="#fffff8"/>
<text x="83" y="812" text-anchor="middle" fill="#555" font-size="12.5" font-style="italic">US bloc</text>
<rect x="294" y="970" width="89" height="17" fill="#fffff8"/>
<text x="338" y="982" text-anchor="middle" fill="#555" font-size="12.5" font-style="italic">public stake</text>
<rect x="422" y="970" width="63" height="17" fill="#fffff8"/>
<text x="453" y="982" text-anchor="middle" fill="#555" font-size="12.5" font-style="italic">no stake</text>
<a href="#1-prepare-before-it-looks-urgent-2026-28"><title>1. Prepare early — 2026-28: sovereign wealth funds, biosecurity, allies</title>
<rect x="55" y="94" width="322" height="56" rx="4" fill="#fffff8" stroke="#38761d" stroke-width="2.2"/>
<text x="217" y="119" text-anchor="middle" font-weight="bold" font-size="13">1. Prepare early</text>
<text x="217" y="135" text-anchor="middle" fill="#333" font-size="11">2026-28: sovereign wealth funds, biosecurity, allies</text>
</a>
<a href="#2-train-specialists-2026-29"><title>2. Train specialists — alignment, security, and policy</title>
<rect x="422" y="94" width="203" height="56" rx="4" fill="#fffff8" stroke="#38761d" stroke-width="2.2"/>
<text x="523" y="119" text-anchor="middle" font-weight="bold" font-size="13">2. Train specialists</text>
<text x="523" y="135" text-anchor="middle" fill="#333" font-size="11">alignment, security, and policy</text>
</a>
<a href="#where-this-could-leave-us"><title>Does rapid AI progress continue?</title>
<rect x="210" y="209" width="260" height="56" rx="4" fill="#fffff8" stroke="#888888" stroke-width="2.2"/>
<text x="340" y="241" text-anchor="middle" font-weight="bold" font-size="13">Does rapid AI progress continue?</text>
</a>
<a href="#vii-boring-decade"><title>VII. Boring decade — AI progress stalls</title>
<rect x="164" y="324" width="157" height="56" rx="22" fill="#fffff8" stroke="#3d85c6" stroke-width="2.2"/>
<text x="243" y="349" text-anchor="middle" font-weight="bold" font-size="13">VII. Boring decade</text>
<text x="243" y="365" text-anchor="middle" fill="#333" font-size="11">AI progress stalls</text>
</a>
<a href="#where-this-could-leave-us"><title>AI 2040 Plan A</title>
<rect x="366" y="324" width="150" height="56" rx="4" fill="#fffff8" stroke="#888888" stroke-width="2.2"/>
<text x="441" y="356" text-anchor="middle" font-weight="bold" font-size="13">AI 2040 Plan A</text>
</a>
<a href="#i-doom-about-28"><title>I. Doom</title>
<rect x="12" y="439" width="150" height="56" rx="22" fill="#fffff8" stroke="#3d85c6" stroke-width="2.2"/>
<text x="88" y="471" text-anchor="middle" font-weight="bold" font-size="13">I. Doom</text>
</a>
<a href="#ii-humans-retain-control-but-the-world-still-goes-badly"><title>II. Humans retain control — but the world still goes badly</title>
<rect x="206" y="439" width="208" height="56" rx="22" fill="#fffff8" stroke="#3d85c6" stroke-width="2.2"/>
<text x="311" y="464" text-anchor="middle" font-weight="bold" font-size="13">II. Humans retain control</text>
<text x="311" y="480" text-anchor="middle" fill="#333" font-size="11">but the world still goes badly</text>
</a>
<a href="#where-we-depart-from-ai-2040"><title>AI 2040&#x27;s positive vision — Does ANZ remain democratic?</title>
<rect x="459" y="439" width="208" height="56" rx="4" fill="#fffff8" stroke="#888888" stroke-width="2.2"/>
<text x="563" y="464" text-anchor="middle" font-weight="bold" font-size="13">AI 2040&#x27;s positive vision</text>
<text x="563" y="480" text-anchor="middle" fill="#333" font-size="11">Does ANZ remain democratic?</text>
</a>
<a href="#ix-homegrown-autocracy-free-beer-and-rugby-for-life"><title>IX. Homegrown autocracy — citizens stop being needed</title>
<rect x="113" y="554" width="194" height="56" rx="22" fill="#fffff8" stroke="#3d85c6" stroke-width="2.2"/>
<text x="210" y="579" text-anchor="middle" font-weight="bold" font-size="13">IX. Homegrown autocracy</text>
<text x="210" y="595" text-anchor="middle" fill="#333" font-size="11">citizens stop being needed</text>
</a>
<a href="#3-ask-for-terms-before-signing-2029"><title>3. Sign, or set our price? — ANZ remains democratic</title>
<rect x="351" y="554" width="216" height="56" rx="4" fill="#fffff8" stroke="#b8860b" stroke-width="2.2"/>
<text x="459" y="579" text-anchor="middle" font-weight="bold" font-size="13">3. Sign, or set our price?</text>
<text x="459" y="595" text-anchor="middle" fill="#333" font-size="11">ANZ remains democratic</text>
</a>
<a href="#6-choose-a-side-if-the-deal-collapses-2030s"><title>6. If the deal collapses — US bloc, concert, or neutral?</title>
<rect x="128" y="669" width="201" height="56" rx="4" fill="#fffff8" stroke="#b8860b" stroke-width="2.2"/>
<text x="228" y="694" text-anchor="middle" font-weight="bold" font-size="13">6. If the deal collapses</text>
<text x="228" y="710" text-anchor="middle" fill="#333" font-size="11">US bloc, concert, or neutral?</text>
</a>
<a href="#4-host-allied-compute-2030-32"><title>4. Host compute here? — 2030-32</title>
<rect x="373" y="669" width="179" height="56" rx="4" fill="#fffff8" stroke="#b8860b" stroke-width="2.2"/>
<text x="463" y="694" text-anchor="middle" font-weight="bold" font-size="13">4. Host compute here?</text>
<text x="463" y="710" text-anchor="middle" fill="#333" font-size="11">2030-32</text>
</a>
<a href="#viii-middle-power-concert"><title>VIII. Middle-power concert — allies bargain together</title>
<rect x="117" y="784" width="216" height="56" rx="22" fill="#fffff8" stroke="#3d85c6" stroke-width="2.2"/>
<text x="225" y="809" text-anchor="middle" font-weight="bold" font-size="13">VIII. Middle-power concert</text>
<text x="225" y="825" text-anchor="middle" fill="#333" font-size="11">allies bargain together</text>
</a>
<a href="#v-allied-compute-host"><title>V. Allied compute host — ANZ hosts US clusters</title>
<rect x="377" y="784" width="187" height="56" rx="22" fill="#fffff8" stroke="#3d85c6" stroke-width="2.2"/>
<text x="470" y="809" text-anchor="middle" font-weight="bold" font-size="13">V. Allied compute host</text>
<text x="470" y="825" text-anchor="middle" fill="#333" font-size="11">ANZ hosts US clusters</text>
</a>
<a href="#vi-garrison-ally"><title>VI. Garrison ally — ANZ joins the US bloc</title>
<rect x="146" y="899" width="150" height="56" rx="22" fill="#fffff8" stroke="#3d85c6" stroke-width="2.2"/>
<text x="221" y="924" text-anchor="middle" font-weight="bold" font-size="13">VI. Garrison ally</text>
<text x="221" y="940" text-anchor="middle" fill="#333" font-size="11">ANZ joins the US bloc</text>
</a>
<a href="#5-keep-a-public-stake-in-the-machine-economy-2031-34"><title>5. Tax it, own a share? — 2031-34</title>
<rect x="340" y="899" width="194" height="56" rx="4" fill="#fffff8" stroke="#b8860b" stroke-width="2.2"/>
<text x="437" y="924" text-anchor="middle" font-weight="bold" font-size="13">5. Tax it, own a share?</text>
<text x="437" y="940" text-anchor="middle" fill="#333" font-size="11">2031-34</text>
</a>
<a href="#iii-dividend-commonwealth"><title>III. Dividend commonwealth — households own a share</title>
<rect x="131" y="1014" width="216" height="56" rx="22" fill="#fffff8" stroke="#3d85c6" stroke-width="2.2"/>
<text x="239" y="1039" text-anchor="middle" font-weight="bold" font-size="13">III. Dividend commonwealth</text>
<text x="239" y="1055" text-anchor="middle" fill="#333" font-size="11">households own a share</text>
</a>
<a href="#iv-quarry-economy"><title>IV. Quarry economy — no public stake</title>
<rect x="391" y="1014" width="157" height="56" rx="22" fill="#fffff8" stroke="#3d85c6" stroke-width="2.2"/>
<text x="470" y="1039" text-anchor="middle" font-weight="bold" font-size="13">IV. Quarry economy</text>
<text x="470" y="1055" text-anchor="middle" fill="#333" font-size="11">no public stake</text>
</a>
</svg>