<svg xmlns="http://www.w3.org/2000/svg" viewBox="0 0 760 1157" font-family="Georgia, serif" font-size="14">
<rect width="760" height="1157" fill="#fffff8"/>
<text x="380" y="82" text-anchor="middle" font-size="28" font-weight="bold" fill="#111">Choose a path</text>
<path d="M257,150 C257,180 380,180 380,209" fill="none" stroke="#a9a99f" stroke-width="1.0"></path>
<path d="M563,150 C563,180 380,180 380,209" fill="none" stroke="#a9a99f" stroke-width="1.0"></path>
<path d="M380,265 C380,294 268,294 268,324" fill="none" stroke="#a9a99f" stroke-width="7.3"><title>28% misaligned takeover (AI 2040 supplement)</title></path>
<path d="M380,265 C380,294 477,294 477,324" fill="none" stroke="#a9a99f" stroke-width="18.7"><title>72% humans retain control (AI 2040 supplement)</title></path>
<path d="M477,380 C477,410 245,410 245,439" fill="none" stroke="#a9a99f" stroke-width="7.8"><title>30% aligned without a &#x27;great future&#x27; (AI 2040 supplement)</title></path>
<path d="M477,380 C477,410 524,410 524,439" fill="none" stroke="#a9a99f" stroke-width="10.9"><title>42% &#x27;great future&#x27; (AI 2040 supplement)</title></path>
<path d="M387,352 C70,352 70,582 115,582" fill="none" stroke="#a9a99f" stroke-width="1.0" stroke-dasharray="5 5"><title>Separate ANZ risk conditional on humans retaining control; overlaps and revises the AI 2040 outcome categories</title></path>
<path d="M524,495 C524,524 538,524 538,554" fill="none" stroke="#a9a99f" stroke-width="10.9"><title>AI 2040&#x27;s 42% positive global outcome continues to the ANZ choices</title></path>
<path d="M538,610 C538,640 503,640 503,669" fill="none" stroke="#a9a99f" stroke-width="1.0"></path>
<path d="M538,610 C538,640 268,640 268,669" fill="none" stroke="#a9a99f" stroke-width="1.0" stroke-dasharray="5 5"></path>
<path d="M503,725 C503,754 506,754 506,784" fill="none" stroke="#a9a99f" stroke-width="1.0"></path>
<path d="M592,697 C647,697 647,927 574,927" fill="none" stroke="#a9a99f" stroke-width="1.0"></path>
<path d="M268,725 C268,754 265,754 265,784" fill="none" stroke="#a9a99f" stroke-width="1.0"></path>
<path d="M168,697 C123,697 123,927 186,927" fill="none" stroke="#a9a99f" stroke-width="1.0"></path>
<path d="M477,955 C477,984 279,984 279,1014" fill="none" stroke="#a9a99f" stroke-width="1.0"></path>
<path d="M477,955 C477,984 510,984 510,1014" fill="none" stroke="#a9a99f" stroke-width="1.0"></path>
<rect x="283" y="280" width="83" height="17" fill="#fffff8"/>
<text x="324" y="292" text-anchor="middle" fill="#555" font-size="12.5" font-style="italic">misaligned!</text>
<rect x="12" y="455" width="116" height="17" fill="#fffff8"/>
<text x="70" y="467" text-anchor="middle" fill="#555" font-size="12.5" font-style="italic">overlapping risk</text>
<rect x="472" y="626" width="96" height="17" fill="#fffff8"/>
<text x="520" y="638" text-anchor="middle" fill="#555" font-size="12.5" font-style="italic">set our price</text>
<rect x="476" y="740" width="56" height="17" fill="#fffff8"/>
<text x="504" y="752" text-anchor="middle" fill="#555" font-size="12.5" font-style="italic">host it</text>
<rect x="599" y="800" width="96" height="17" fill="#fffff8"/>
<text x="647" y="812" text-anchor="middle" fill="#555" font-size="12.5" font-style="italic">stay supplier</text>
<rect x="238" y="740" width="56" height="17" fill="#fffff8"/>
<text x="267" y="752" text-anchor="middle" fill="#555" font-size="12.5" font-style="italic">concert</text>
<rect x="95" y="800" width="56" height="17" fill="#fffff8"/>
<text x="123" y="812" text-anchor="middle" fill="#555" font-size="12.5" font-style="italic">US bloc</text>
<rect x="334" y="970" width="89" height="17" fill="#fffff8"/>
<text x="378" y="982" text-anchor="middle" fill="#555" font-size="12.5" font-style="italic">public stake</text>
<rect x="462" y="970" width="63" height="17" fill="#fffff8"/>
<text x="493" y="982" text-anchor="middle" fill="#555" font-size="12.5" font-style="italic">no stake</text>
<a href="#1-prepare-before-it-looks-urgent-2026-28"><title>1. Prepare early — 2026-28: sovereign wealth funds, biosecurity, allies</title>
<rect x="95" y="94" width="322" height="56" rx="4" fill="#fffff8" stroke="#38761d" stroke-width="2.2"/>
<text x="257" y="119" text-anchor="middle" font-weight="bold" font-size="13">1. Prepare early</text>
<text x="257" y="135" text-anchor="middle" fill="#333" font-size="11">2026-28: sovereign wealth funds, biosecurity, allies</text>
</a>
<a href="#2-train-specialists-2026-29"><title>2. Train specialists — alignment, security, and policy</title>
<rect x="462" y="94" width="203" height="56" rx="4" fill="#fffff8" stroke="#38761d" stroke-width="2.2"/>
<text x="563" y="119" text-anchor="middle" font-weight="bold" font-size="13">2. Train specialists</text>
<text x="563" y="135" text-anchor="middle" fill="#333" font-size="11">alignment, security, and policy</text>
</a>
<a href="https://ai-2040.com/?choices=plan-a-root"><title>US pursues Plan A — China accepts the verified slowdown</title>
<rect x="267" y="209" width="226" height="56" rx="4" fill="#fffff8" stroke="#888888" stroke-width="2.2"/>
<text x="380" y="234" text-anchor="middle" font-weight="bold" font-size="13">US pursues Plan A</text>
<text x="380" y="250" text-anchor="middle" fill="#333" font-size="11">China accepts the verified slowdown</text>
</a>
<a href="#i-ai-takeover-about-28"><title>I. AI takeover — humans lose control</title>
<rect x="193" y="324" width="150" height="56" rx="22" fill="#fffff8" stroke="#3d85c6" stroke-width="2.2"/>
<text x="268" y="349" text-anchor="middle" font-weight="bold" font-size="13">I. AI takeover</text>
<text x="268" y="365" text-anchor="middle" fill="#333" font-size="11">humans lose control</text>
</a>
<a href="#where-this-could-leave-us"><title>Humans retain control</title>
<rect x="387" y="324" width="179" height="56" rx="4" fill="#fffff8" stroke="#888888" stroke-width="2.2"/>
<text x="477" y="356" text-anchor="middle" font-weight="bold" font-size="13">Humans retain control</text>
</a>
<a href="#ii-humans-retain-control-but-the-world-still-goes-badly"><title>II. The world still goes badly</title>
<rect x="123" y="439" width="245" height="56" rx="22" fill="#fffff8" stroke="#3d85c6" stroke-width="2.2"/>
<text x="245" y="471" text-anchor="middle" font-weight="bold" font-size="13">II. The world still goes badly</text>
</a>
<a href="#where-we-depart-from-ai-2040"><title>AI 2040&#x27;s positive vision — people remain politically empowered</title>
<rect x="412" y="439" width="226" height="56" rx="4" fill="#fffff8" stroke="#888888" stroke-width="2.2"/>
<text x="524" y="464" text-anchor="middle" font-weight="bold" font-size="13">AI 2040&#x27;s positive vision</text>
<text x="524" y="480" text-anchor="middle" fill="#333" font-size="11">people remain politically empowered</text>
</a>
<a href="#homegrown-autocracy-free-beer-and-rugby-for-life"><title>Homegrown autocracy — 30% if humans retain control (our estimate)</title>
<rect x="115" y="554" width="271" height="56" rx="4" fill="#fffff8" stroke="#990000" stroke-width="3.6"/>
<text x="250" y="579" text-anchor="middle" font-weight="bold" font-size="13">Homegrown autocracy</text>
<text x="250" y="595" text-anchor="middle" fill="#333" font-size="11">30% if humans retain control (our estimate)</text>
</a>
<a href="#3-ask-for-terms-before-signing-2029"><title>3. Sign, or set our price? — ANZ remains democratic</title>
<rect x="430" y="554" width="216" height="56" rx="4" fill="#fffff8" stroke="#b8860b" stroke-width="2.2"/>
<text x="538" y="579" text-anchor="middle" font-weight="bold" font-size="13">3. Sign, or set our price?</text>
<text x="538" y="595" text-anchor="middle" fill="#333" font-size="11">ANZ remains democratic</text>
</a>
<a href="#6-choose-a-side-if-the-deal-collapses-2030s"><title>6. If the deal collapses — US bloc, concert, or neutral?</title>
<rect x="168" y="669" width="201" height="56" rx="4" fill="#fffff8" stroke="#b8860b" stroke-width="2.2"/>
<text x="268" y="694" text-anchor="middle" font-weight="bold" font-size="13">6. If the deal collapses</text>
<text x="268" y="710" text-anchor="middle" fill="#333" font-size="11">US bloc, concert, or neutral?</text>
</a>
<a href="#4-host-allied-compute-2030-32"><title>4. Host compute here? — 2030-32</title>
<rect x="413" y="669" width="179" height="56" rx="4" fill="#fffff8" stroke="#b8860b" stroke-width="2.2"/>
<text x="503" y="694" text-anchor="middle" font-weight="bold" font-size="13">4. Host compute here?</text>
<text x="503" y="710" text-anchor="middle" fill="#333" font-size="11">2030-32</text>
</a>
<a href="#vii-middle-power-concert"><title>VII. Middle-power concert — allies bargain together</title>
<rect x="160" y="784" width="208" height="56" rx="22" fill="#fffff8" stroke="#3d85c6" stroke-width="2.2"/>
<text x="265" y="809" text-anchor="middle" font-weight="bold" font-size="13">VII. Middle-power concert</text>
<text x="265" y="825" text-anchor="middle" fill="#333" font-size="11">allies bargain together</text>
</a>
<a href="#v-allied-compute-host"><title>V. Allied compute host — ANZ hosts US clusters</title>
<rect x="413" y="784" width="187" height="56" rx="22" fill="#fffff8" stroke="#3d85c6" stroke-width="2.2"/>
<text x="506" y="809" text-anchor="middle" font-weight="bold" font-size="13">V. Allied compute host</text>
<text x="506" y="825" text-anchor="middle" fill="#333" font-size="11">ANZ hosts US clusters</text>
</a>
<a href="#vi-garrison-ally"><title>VI. Garrison ally — ANZ joins the US bloc</title>
<rect x="186" y="899" width="150" height="56" rx="22" fill="#fffff8" stroke="#3d85c6" stroke-width="2.2"/>
<text x="261" y="924" text-anchor="middle" font-weight="bold" font-size="13">VI. Garrison ally</text>
<text x="261" y="940" text-anchor="middle" fill="#333" font-size="11">ANZ joins the US bloc</text>
</a>
<a href="#5-keep-a-public-stake-in-the-machine-economy-2031-34"><title>5. Tax it, own a share? — 2031-34</title>
<rect x="380" y="899" width="194" height="56" rx="4" fill="#fffff8" stroke="#b8860b" stroke-width="2.2"/>
<text x="477" y="924" text-anchor="middle" font-weight="bold" font-size="13">5. Tax it, own a share?</text>
<text x="477" y="940" text-anchor="middle" fill="#333" font-size="11">2031-34</text>
</a>
<a href="#iii-dividend-commonwealth"><title>III. Dividend commonwealth — households own a share</title>
<rect x="171" y="1014" width="216" height="56" rx="22" fill="#fffff8" stroke="#3d85c6" stroke-width="2.2"/>
<text x="279" y="1039" text-anchor="middle" font-weight="bold" font-size="13">III. Dividend commonwealth</text>
<text x="279" y="1055" text-anchor="middle" fill="#333" font-size="11">households own a share</text>
</a>
<a href="#iv-quarry-economy"><title>IV. Quarry economy — no public stake</title>
<rect x="431" y="1014" width="157" height="56" rx="22" fill="#fffff8" stroke="#3d85c6" stroke-width="2.2"/>
<text x="510" y="1039" text-anchor="middle" font-weight="bold" font-size="13">IV. Quarry economy</text>
<text x="510" y="1055" text-anchor="middle" fill="#333" font-size="11">no public stake</text>
</a>
</svg>